<svg width="120" height="52" viewBox="0 0 120 52" fill="none" xmlns="http://www.w3.org/2000/svg">
<g clip-path="url(#clip0_2584_9)">
<path d="M39 0H13C5.8203 0 0 5.8203 0 13V39C0 46.1797 5.8203 52 13 52H39C46.1797 52 52 46.1797 52 39V13C52 5.8203 46.1797 0 39 0Z" fill="#00D4AA"/>
<path d="M21 15C21 12.7909 19.2091 11 17 11C14.7909 11 13 12.7909 13 15V37C13 39.2091 14.7909 41 17 41C19.2091 41 21 39.2091 21 37V15Z" fill="#0A0F0D"/>
<path d="M35 11H17C14.7909 11 13 12.7909 13 15C13 17.2091 14.7909 19 17 19H35C37.2091 19 39 17.2091 39 15C39 12.7909 37.2091 11 35 11Z" fill="#0A0F0D"/>
<path d="M29.5 27H16.5C14.567 27 13 28.567 13 30.5C13 32.433 14.567 34 16.5 34H29.5C31.433 34 33 32.433 33 30.5C33 28.567 31.433 27 29.5 27Z" fill="#0A0F0D"/>
<path d="M70.976 31V20.752H68.672V17.944H70.976V17.512C70.976 16.52 71.176 15.68 71.576 14.992C71.992 14.288 72.568 13.752 73.304 13.384C74.04 13.016 74.912 12.832 75.92 12.832C76.112 12.832 76.32 12.848 76.544 12.88C76.784 12.896 76.984 12.92 77.144 12.952V15.664C76.984 15.632 76.832 15.616 76.688 15.616C76.56 15.6 76.44 15.592 76.328 15.592C75.624 15.592 75.08 15.752 74.696 16.072C74.312 16.376 74.12 16.856 74.12 17.512V17.944H77.024V20.752H74.12V31H70.976ZM85.223 31.288C83.943 31.288 82.775 30.992 81.719 30.4C80.679 29.808 79.847 29 79.223 27.976C78.615 26.952 78.311 25.784 78.311 24.472C78.311 23.16 78.615 21.992 79.223 20.968C79.847 19.944 80.679 19.136 81.719 18.544C82.759 17.952 83.927 17.656 85.223 17.656C86.503 17.656 87.663 17.952 88.703 18.544C89.743 19.136 90.567 19.944 91.175 20.968C91.799 21.976 92.111 23.144 92.111 24.472C92.111 25.784 91.799 26.952 91.175 27.976C90.551 29 89.719 29.808 88.679 30.4C87.639 30.992 86.487 31.288 85.223 31.288ZM85.223 28.408C85.927 28.408 86.543 28.24 87.071 27.904C87.615 27.568 88.039 27.104 88.343 26.512C88.663 25.904 88.823 25.224 88.823 24.472C88.823 23.704 88.663 23.032 88.343 22.456C88.039 21.864 87.615 21.4 87.071 21.064C86.543 20.712 85.927 20.536 85.223 20.536C84.503 20.536 83.871 20.712 83.327 21.064C82.783 21.4 82.351 21.864 82.031 22.456C81.727 23.032 81.575 23.704 81.575 24.472C81.575 25.224 81.727 25.904 82.031 26.512C82.351 27.104 82.783 27.568 83.327 27.904C83.871 28.24 84.503 28.408 85.223 28.408ZM94.4953 31V12.832H97.6393V31H94.4953ZM106.614 31.288C105.35 31.288 104.222 30.992 103.23 30.4C102.238 29.792 101.454 28.968 100.878 27.928C100.302 26.888 100.014 25.736 100.014 24.472C100.014 23.192 100.302 22.04 100.878 21.016C101.454 19.992 102.238 19.176 103.23 18.568C104.238 17.96 105.358 17.656 106.59 17.656C107.582 17.656 108.462 17.856 109.23 18.256C110.014 18.64 110.63 19.184 111.078 19.888L110.598 20.536V12.832H113.742V31H110.766V28.48L111.102 29.104C110.654 29.808 110.03 30.352 109.23 30.736C108.43 31.104 107.558 31.288 106.614 31.288ZM106.95 28.408C107.67 28.408 108.302 28.24 108.846 27.904C109.39 27.568 109.814 27.104 110.118 26.512C110.438 25.92 110.598 25.24 110.598 24.472C110.598 23.72 110.438 23.048 110.118 22.456C109.814 21.848 109.39 21.376 108.846 21.04C108.302 20.704 107.67 20.536 106.95 20.536C106.246 20.536 105.614 20.712 105.054 21.064C104.494 21.4 104.054 21.864 103.734 22.456C103.43 23.032 103.278 23.704 103.278 24.472C103.278 25.24 103.43 25.92 103.734 26.512C104.054 27.104 104.494 27.568 105.054 27.904C105.614 28.24 106.246 28.408 106.95 28.408Z" fill="white"/>
<path d="M68.264 46L70.016 40.4H70.792L72.536 46H71.8L71.392 44.608H69.408L69 46H68.264ZM70.384 41.344L69.576 44.048H71.224L70.416 41.344H70.384ZM73.2529 46V40.4H73.9409L76.4849 44.824V40.4H77.1489V46H76.4529L73.9089 41.576V46H73.2529ZM77.8577 46L79.6098 40.4H80.3858L82.1298 46H81.3938L80.9858 44.608H79.0018L78.5938 46H77.8577ZM79.9778 41.344L79.1698 44.048H80.8178L80.0098 41.344H79.9778ZM83.0866 46V40.4H83.7586V45.392H86.5986V46H83.0866ZM89.2515 46V43.8L87.4355 40.4H88.1955L89.5875 43.12L90.9795 40.4H91.7395L89.9235 43.8V46H89.2515ZM94.0484 46V41.008H92.5444V40.4H96.2244V41.008H94.7204V46H94.0484ZM97.5733 46V45.416H98.8453V40.984H97.5733V40.4H100.789V40.984H99.5173V45.416H100.789V46H97.5733ZM104.018 46.096C103.565 46.096 103.173 45.976 102.842 45.736C102.517 45.496 102.266 45.16 102.09 44.728C101.919 44.296 101.834 43.7867 101.834 43.2C101.834 42.6187 101.919 42.112 102.09 41.68C102.266 41.2427 102.517 40.904 102.842 40.664C103.173 40.424 103.565 40.304 104.018 40.304C104.594 40.304 105.058 40.464 105.41 40.784C105.762 41.0987 105.967 41.52 106.026 42.048H105.282C105.229 41.7333 105.095 41.4693 104.882 41.256C104.669 41.0427 104.381 40.936 104.018 40.936C103.554 40.936 103.189 41.1387 102.922 41.544C102.655 41.944 102.522 42.496 102.522 43.2C102.522 43.9093 102.655 44.464 102.922 44.864C103.189 45.264 103.554 45.464 104.018 45.464C104.397 45.464 104.687 45.3627 104.89 45.16C105.098 44.9573 105.229 44.696 105.282 44.376H106.026C105.941 44.9093 105.727 45.3307 105.386 45.64C105.05 45.944 104.594 46.096 104.018 46.096ZM108.831 46.096C108.436 46.096 108.092 46.0213 107.799 45.872C107.511 45.7227 107.287 45.5147 107.127 45.248C106.972 44.9813 106.892 44.6693 106.887 44.312H107.591C107.596 44.632 107.703 44.9093 107.911 45.144C108.124 45.3733 108.431 45.488 108.831 45.488C109.199 45.488 109.482 45.4 109.679 45.224C109.882 45.0427 109.983 44.8267 109.983 44.576C109.983 44.368 109.935 44.1947 109.839 44.056C109.743 43.912 109.586 43.7867 109.367 43.68C109.154 43.568 108.866 43.4533 108.503 43.336C107.991 43.1813 107.618 42.9707 107.383 42.704C107.148 42.4373 107.031 42.1067 107.031 41.712C107.031 41.4453 107.1 41.2053 107.239 40.992C107.378 40.7787 107.578 40.6107 107.839 40.488C108.1 40.3653 108.418 40.304 108.791 40.304C109.143 40.304 109.45 40.3707 109.711 40.504C109.978 40.632 110.183 40.8133 110.327 41.048C110.476 41.2827 110.551 41.552 110.551 41.856H109.847C109.847 41.7067 109.807 41.56 109.727 41.416C109.647 41.272 109.527 41.152 109.367 41.056C109.207 40.96 109.004 40.912 108.759 40.912C108.466 40.912 108.22 40.984 108.023 41.128C107.826 41.2667 107.727 41.4587 107.727 41.704C107.727 41.8907 107.77 42.048 107.855 42.176C107.946 42.304 108.092 42.4213 108.295 42.528C108.498 42.6293 108.772 42.7387 109.119 42.856C109.444 42.9627 109.722 43.088 109.951 43.232C110.186 43.3707 110.364 43.544 110.487 43.752C110.615 43.96 110.679 44.2187 110.679 44.528C110.679 44.832 110.602 45.1013 110.447 45.336C110.292 45.5707 110.076 45.7573 109.799 45.896C109.522 46.0293 109.199 46.096 108.831 46.096Z" fill="#00D4AA"/>
</g>
<defs>
<clipPath id="clip0_2584_9">
<rect width="120" height="52" fill="white"/>
</clipPath>
</defs>
</svg>
