<svg role="img" viewBox="0 0 24 24" xmlns="http://www.w3.org/2000/svg"><title>Kit</title><path fill="#FB6970" d="M12 0C5.373 0 0 5.373 0 12s5.373 12 12 12 12-5.373 12-12S18.627 0 12 0zm3.502 16.98c-.66.43-1.376.649-2.145.649-1.04 0-1.896-.343-2.568-1.029-.672-.686-1.008-1.566-1.008-2.64 0-1.08.344-1.97 1.032-2.672.688-.701 1.56-1.052 2.616-1.052.734 0 1.41.194 2.027.582l-.59 1.186a2.01 2.01 0 00-1.246-.422c-.6 0-1.096.21-1.487.63-.392.42-.588.962-.588 1.626 0 .659.19 1.197.57 1.614.38.417.876.626 1.488.626.5 0 .965-.155 1.392-.466l.507 1.368zm-1.316-7.98L11.2 12.5 14 16.5h-2.2l-2.3-3.5v3.5H8V7.5h1.5V12l2.5-3h2.186z"/></svg>
